<svg xmlns="http://www.w3.org/2000/svg" width="256" height="256"><path fill-opacity=".016" d="M0 128.004v128.004l128.25-.254 128.25-.254.254-127.75L257.008 0H0v128.004m.485.496c0 70.4.119 99.053.265 63.672.146-35.38.146-92.98 0-128C.604 29.153.485 58.1.485 128.5" fill="#fff" fill-rule="evenodd"/><path fill-opacity=".271" d="M.672 13.411c-.522 1.362 50.555 87.343 52.753 88.803.591.392 1.615.167 2.276-.5 2.786-2.815 51.072-87.142 50.601-88.369-.788-2.054-104.841-1.99-105.63.066m103.943 56.96c-19.038 32.104-34.608 58.991-34.599 59.75.009.758 4.658 9.029 10.331 18.379 7.442 12.267 10.835 17 12.185 17 1.374 0 4.673-4.845 12.419-18.24 5.802-10.031 11.061-18.244 11.687-18.25.626-.005 2.993 2.947 5.259 6.562 2.832 4.517 4.649 6.47 5.81 6.246.929-.179 3.38-3.249 5.445-6.822 2.066-3.573 4.307-6.496 4.979-6.496.672 0 6.506 8.55 12.965 19 12.199 19.738 13.415 21.5 14.84 21.5.471 0 14.252-23.062 30.625-51.25 16.372-28.187 30.213-51.974 30.756-52.859.754-1.227-.234-3.631-4.165-10.139-2.833-4.691-5.134-9.142-5.113-9.891.051-1.782 6.228-12.117 7.495-12.539.539-.18 2.801 2.712 5.027 6.426 2.513 4.192 4.785 6.844 5.993 6.996 1.543.193 3.689-2.79 10.365-14.41 4.631-8.06 8.621-15.707 8.867-16.994l.447-2.34-20.866.015-20.867.016-8.5 14.706c-4.675 8.089-8.645 15.279-8.822 15.977-.177.699 1.987 5.092 4.808 9.763l5.129 8.492-3.643 6.515c-2.004 3.584-4.027 6.516-4.495 6.516-.468 0-2.792-3.155-5.164-7.011-2.662-4.327-4.887-6.907-5.813-6.739-.825.149-7.396 10.369-14.602 22.711-7.207 12.342-13.552 22.59-14.101 22.773-.99.33-15.297-22.656-15.297-24.575 0-.548 8.565-15.745 19.034-33.769 10.468-18.025 18.807-33.361 18.531-34.081-.392-1.021-5.107-1.309-21.419-1.309H139.23l-34.615 58.371M73.307 202.25c-2.123 2.829-11.479 26.663-10.86 27.665 1.366 2.209 4.206 1.037 5.852-2.415 1.61-3.377 1.863-3.5 7.201-3.5 5.338 0 5.591.123 7.201 3.5 1.713 3.592 4.887 4.737 5.889 2.125.516-1.343-8.789-24.899-10.813-27.375-.562-.687-1.587-1.25-2.277-1.25-.69 0-1.677.563-2.193 1.25m19.131.05c-.274.716-.373 7.353-.218 14.75l.28 13.45H95c2.311 0 2.523-.397 2.802-5.25l.303-5.25h3.513c5.081 0 7.382 1.547 7.382 4.964 0 1.591.707 3.6 1.571 4.465 1.662 1.661 4.979 2.109 5.798.783.522-.845-2.425-10.61-3.536-11.715-.367-.366.243-2.207 1.356-4.092 2.391-4.054 1.873-7.434-1.684-10.991-2.177-2.177-3.257-2.414-10.991-2.414-6.116 0-8.72.373-9.076 1.3m26.273.01c-.885 2.307.628 3.526 4.802 3.866l3.987.324.281 12.313.282 12.314 2.718-.314 2.719-.313.28-12.194.281-12.194 4.219-.306c3.451-.25 4.22-.67 4.22-2.306 0-1.869-.76-2.018-11.631-2.281-9.127-.22-11.745.015-12.158 1.091m28.754-.08c-.289.754-.4 7.423-.245 14.82l.28 13.45h2.5c2.342 0 2.519-.363 2.8-5.75l.3-5.75H166v6c0 5.662.135 6 2.393 6 1.316 0 2.666-.712 3-1.582.334-.87.607-7.115.607-13.877 0-9.663-.318-12.56-1.487-13.53-2.895-2.403-4.513-.447-4.513 5.458V213h-12.9l-.3-5.75c-.266-5.097-.556-5.786-2.554-6.07-1.24-.176-2.492.296-2.781 1.05m37.191 1.52c-3.874 7.634-10.736 25.312-10.177 26.217 1.336 2.161 4.189.952 5.82-2.467 1.61-3.377 1.863-3.5 7.201-3.5 5.338 0 5.591.123 7.201 3.5 1.748 3.665 4.893 4.723 5.939 1.997.317-.827-2.021-7.577-5.196-15-6.173-14.434-7.996-16.249-10.788-10.747M98 210.552v4.553l5.25-.303c5.169-.297 5.255-.354 5.574-3.697.391-4.098-.863-5.069-6.574-5.09L98 206v4.552m-24.304 3.96c-.98 2.055-1.581 3.937-1.335 4.182.246.246 1.818.303 3.494.127l3.046-.321-1.712-3.862-1.712-3.862-1.781 3.736m112.067.105l-1.557 3.883 2.993.321c1.646.176 3.208.106 3.469-.156.262-.262-.384-2.154-1.436-4.204l-1.912-3.727-1.557 3.883" fill="#fff" fill-rule="evenodd"/><path fill-opacity=".557" d="M138.252 14.75c-1.037 1.512-16.868 28.071-35.181 59.019l-33.297 56.269 10.737 17.981C86.417 157.909 91.761 166 92.388 166c.626 0 5.372-7.312 10.547-16.25 10.636-18.369 12.826-21.75 14.088-21.75.488 0 2.759 3.15 5.046 7 2.288 3.85 4.699 7 5.359 7 .66 0 2.971-3.149 5.136-6.998 2.273-4.04 4.603-6.998 5.515-7 .976-.001 6.288 7.645 13.921 20.038 7.76 12.601 12.863 19.933 13.745 19.75 1.429-.295 61.254-102.321 61.255-104.464 0-.645-2.299-5.021-5.11-9.723l-5.11-8.551 3.835-6.556c2.347-4.012 4.405-6.446 5.302-6.273.807.155 3.293 3.329 5.525 7.052 2.232 3.724 4.65 6.648 5.373 6.498 1.803-.374 19.553-31.369 18.728-32.703-.434-.702-7.49-1.07-20.511-1.07h-19.849l-9.139 15.642-9.14 15.643 5.148 8.393c3.688 6.014 4.978 9.021 4.552 10.608C205.675 65.749 200.135 74 198.74 74c-.691 0-3.059-3.002-5.261-6.671-2.202-3.669-4.507-6.838-5.123-7.044-.616-.205-7.13 10.009-14.476 22.698-8.733 15.084-13.854 22.976-14.794 22.794-.791-.152-4.774-5.741-8.85-12.418l-7.413-12.142 19.089-32.827C172.41 30.335 181 14.762 181 13.782c0-1.651-1.501-1.782-20.432-1.782h-20.432l-1.884 2.75M72.58 204.173l-5.481 13.193C64.844 222.793 63 228.08 63 229.116c0 3.124 2.92 2.12 4.701-1.616 1.64-3.438 1.778-3.5 7.799-3.5 6.021 0 6.159.062 7.799 3.5 1.689 3.543 4.07 4.588 4.989 2.191.277-.72-2.047-7.353-5.163-14.741-6.201-14.699-8.106-16.646-10.545-10.777m20.513-1.785c-.776.935-1.061 5.751-.873 14.75.264 12.602.394 13.362 2.28 13.362 1.71 0 2.044-.768 2.304-5.298l.304-5.299 5.655.299 5.656.298.81 3.922c.972 4.701 2.368 6.578 4.893 6.578 2.011 0 2.672-3.391.878-4.5-.55-.34-1-1.723-1-3.073 0-1.35-.543-3.323-1.206-4.385-.984-1.576-.892-2.276.5-3.815.94-1.038 1.706-3.494 1.706-5.467 0-2.772-.695-4.167-3.077-6.171-2.695-2.268-3.982-2.589-10.377-2.589-5.009 0-7.663.436-8.453 1.388m26.287.064c-.931 2.425.541 3.548 4.648 3.548h3.91l.281 12.25c.264 11.49.405 12.25 2.281 12.25 1.876 0 2.017-.76 2.281-12.25l.281-12.25h4.362c2.783 0 4.553-.499 4.891-1.378 1.073-2.796-1.676-3.622-12.046-3.622-8.11 0-10.452.312-10.889 1.452m28.74-.097c-.81.976-1.092 5.611-.9 14.783.264 12.602.394 13.362 2.28 13.362 1.722 0 2.069-.833 2.5-6l.5-6 6.701-.295 6.701-.294.299 6.294c.263 5.529.542 6.295 2.299 6.295 1.891 0 2.015-.76 2.279-13.921.154-7.656-.108-14.308-.582-14.782-.475-.475-1.613-.575-2.53-.223-1.297.498-1.667 1.958-1.667 6.579v5.938l-6.75-.295-6.75-.296-.5-5.922c-.511-6.049-1.778-7.755-3.88-5.223m38.315-.589c-1.41.971-11.435 24.96-11.435 27.362 0 3.114 2.923 2.102 4.701-1.628 1.64-3.438 1.778-3.5 7.799-3.5 6.021 0 6.159.062 7.799 3.5 1.624 3.407 3.95 4.524 5.202 2.498.742-1.201-10.567-28.202-12.001-28.652-.55-.172-1.479.017-2.065.42m-89.242 8.932l.307 4.802h4.962c4.368 0 5.145-.328 6.5-2.741 2.413-4.301.575-6.193-6.372-6.561l-5.704-.301.307 4.801m-23.454 2.724c-2.362 4.953-2.256 5.299 1.761 5.768 3.992.466 4.165-.094 1.712-5.552l-1.735-3.862-1.738 3.646m111.92.472c-2.237 5.59-2.176 5.765 1.841 5.296 3.952-.462 4.169-1.276 1.617-6.066l-1.799-3.376-1.659 4.146" fill="#fff" fill-rule="evenodd"/><path fill-opacity=".445" d="M72.38 205.673c-.871 2.105-3.337 7.967-5.481 13.026C64.754 223.758 63 228.344 63 228.89c0 2.586 2.21 1.868 4.098-1.331 2.063-3.497 2.212-3.559 8.588-3.559 6.277 0 6.524.096 7.61 2.973.617 1.636 1.72 3.203 2.451 3.483 3.016 1.158 2.187-3.169-2.913-15.211-6.048-14.283-7.831-15.915-10.454-9.572m20.843 10.577c.231 11.877.527 14.25 1.777 14.25 1.104 0 1.58-1.384 1.802-5.25l.303-5.25h5.469c5.851 0 6.447.543 7.848 7.14.623 2.933 3.338 4.5 4.97 2.868.744-.744.694-1.64-.167-3.019-.674-1.079-1.225-2.782-1.225-3.784 0-1.003-.629-2.683-1.398-3.735-1.223-1.672-1.16-2.217.5-4.326 2.643-3.361 2.416-7.717-.557-10.689-2.224-2.225-3.258-2.455-11.027-2.455h-8.573l.278 14.25M119 203.5c0 1.111 1.167 1.5 4.5 1.5h4.5v11.878c0 9.482.311 12.135 1.542 13.157 2.682 2.226 3.381-.162 3.674-12.551l.284-11.984 4.25-.307c2.894-.21 4.25-.768 4.25-1.75 0-1.174-2.148-1.443-11.5-1.443-9.556 0-11.5.254-11.5 1.5m29.223 12.75c.231 11.877.527 14.25 1.777 14.25 1.142 0 1.571-1.493 1.798-6.25l.297-6.25H166v5.378c0 5.508 1.504 8.165 3.814 6.737.919-.568 1.173-4.299.966-14.193-.264-12.662-.393-13.422-2.28-13.422-1.733 0-2.04.767-2.3 5.75l-.3 5.75H152v-6c0-5.36-.216-6-2.027-6-1.955 0-2.018.511-1.75 14.25m36.845-12c-.485 1.238-2.96 7.182-5.501 13.21-2.541 6.029-4.397 11.541-4.125 12.25.875 2.279 2.492 1.384 3.994-2.21 1.457-3.487 1.485-3.5 7.914-3.5 6.334 0 6.491.065 8.552 3.559 1.951 3.306 4.086 3.894 4.107 1.132.005-.655-2.358-6.925-5.25-13.933-3.939-9.543-5.704-12.744-7.034-12.75-.976-.004-2.171 1.004-2.657 2.242m-87.401 1.417c-.367.366-.667 2.841-.667 5.5V216h5.465c4.379 0 5.67-.384 6.5-1.934 2.771-5.179.04-9.066-6.37-9.066-2.344 0-4.562.3-4.928.667m-24.015 7.083c-.769 1.512-1.711 3.762-2.093 5-.649 2.106-.402 2.25 3.874 2.25 2.512 0 4.567-.188 4.567-.417 0-.996-3.978-9.583-4.439-9.583-.28 0-1.139 1.238-1.909 2.75m111.312 1.833c-1.08 2.521-1.964 4.771-1.964 5 0 .229 2.055.417 4.567.417 4.276 0 4.523-.144 3.874-2.25-.936-3.034-3.371-7.75-4.002-7.75-.281 0-1.394 2.062-2.475 4.583" fill="#fff" fill-rule="evenodd"/></svg>