<?xml version="1.0" encoding="UTF-8" standalone="no"?>
<!-- Created with Inkscape (http://www.inkscape.org/) -->

<svg
   xmlns:dc="http://purl.org/dc/elements/1.1/"
   xmlns:cc="http://creativecommons.org/ns#"
   xmlns:rdf="http://www.w3.org/1999/02/22-rdf-syntax-ns#"
   xmlns:svg="http://www.w3.org/2000/svg"
   xmlns="http://www.w3.org/2000/svg"
   xmlns:sodipodi="http://sodipodi.sourceforge.net/DTD/sodipodi-0.dtd"
   xmlns:inkscape="http://www.inkscape.org/namespaces/inkscape"
   version="1.1"
   id="svg3713"
   xml:space="preserve"
   width="227.3103"
   height="211.82719"
   viewBox="0 0 227.3103 211.8272"
   sodipodi:docname="batm-logo.svg"
   inkscape:version="0.92.3 (2405546, 2018-03-11)"><metadata
     id="metadata3719"><rdf:RDF><cc:Work
         rdf:about=""><dc:format>image/svg+xml</dc:format><dc:type
           rdf:resource="http://purl.org/dc/dcmitype/StillImage" /></cc:Work></rdf:RDF></metadata><defs
     id="defs3717"><clipPath
       clipPathUnits="userSpaceOnUse"
       id="clipPath3729"><path
         d="M 0,595.28 H 841.89 V 0 H 0 Z"
         id="path3727"
         inkscape:connector-curvature="0" /></clipPath></defs><sodipodi:namedview
     pagecolor="#ffffff"
     bordercolor="#666666"
     borderopacity="1"
     objecttolerance="10"
     gridtolerance="10"
     guidetolerance="10"
     inkscape:pageopacity="0"
     inkscape:pageshadow="2"
     inkscape:window-width="2304"
     inkscape:window-height="1262"
     id="namedview3715"
     showgrid="false"
     inkscape:zoom="0.97895108"
     inkscape:cx="-33.181879"
     inkscape:cy="107.80967"
     inkscape:window-x="-11"
     inkscape:window-y="-11"
     inkscape:window-maximized="1"
     inkscape:current-layer="g3725" /><g
     id="g3721"
     inkscape:groupmode="layer"
     inkscape:label="BATM Logo Opsi"
     transform="matrix(1.3333333,0,0,-1.3333333,-154.56323,502.76692)"><g
       id="g3723"><g
         id="g3725"
         clip-path="url(#clipPath3729)"><g
           id="g3829"
           transform="translate(277.5835,319.6758)"><path
             d="m 0,0 h -30.84 c 0.01,-0.03 0.03,-0.051 0.04,-0.08 h -23.99 c 1.08,-6.271 1.69,-13.561 1.69,-21.96 h 27.3 c 0,-7.53 -1.679,-15.04 -5.01,-21.971 l -0.004,0.001 H -54.79 c 1.08,6.281 1.69,13.57 1.69,21.97 h -5.32 -18 v -21.971 h 5.38 16.246 c -2.788,-16.207 -8.81,-25.429 -16.211,-28.358 -0.001,-0.001 -0.003,-0.001 -0.005,-0.001 -1.8,-0.191 -3.61,-0.28 -5.41,-0.28 v 28.58 0.059 h -21.09 -0.53 c 0,-0.019 0,-0.04 0.01,-0.059 0.09,-0.54 0.2,-1.04 0.29,-1.561 2.91,-15.17 8.75,-23.89 15.88,-26.729 -5.42,0.58 -10.77,2.009 -15.82,4.339 -1.01,0.47 -2,1 -2.99,1.541 l -1.62,-11.5 -1.87,-13.35 c -0.79,-5.601 3.12,-10.141 8.72,-10.141 h 81.18 c 5.6,0 10.79,4.54 11.57,10.141 L 8.72,-10.15 C 9.51,-4.54 5.61,0 0,0"
             style="fill:#88d040;fill-opacity:1;fill-rule:nonzero;stroke:none"
             id="path3831"
             inkscape:connector-curvature="0" /></g><g
           id="g3833"
           transform="translate(195.6431,319.5957)"><path
             d="m 0,0 c -5.3,-0.391 -10.06,-4.721 -10.81,-10.07 l -1.669,-11.89 h 18 V 0 Z"
             style="fill:#88d040;fill-opacity:1;fill-rule:nonzero;stroke:none"
             id="path3835"
             inkscape:connector-curvature="0" /></g><g
           id="g3837"
           transform="translate(183.1636,297.6357)"><path
             d="m 0,0 1.67,11.89 c 0.75,5.349 5.51,9.679 10.809,10.07 H -3.63 C -4.71,15.689 -5.32,8.399 -5.32,0 Z"
             style="fill:#2350a9;fill-opacity:1;fill-rule:nonzero;stroke:none"
             id="path3839"
             inkscape:connector-curvature="0" /></g><g
           id="g3841"
           transform="translate(220.1831,377.0752)"><path
             d="m 0,0 h -81.18 c -5.61,0 -10.79,-4.54 -11.57,-10.14 l -11.409,-81.19 c -0.79,-5.59 3.109,-10.14 8.729,-10.14 h 30.821 c 0,0.02 -0.021,0.04 -0.031,0.06 h 24 c -1.089,6.28 -1.7,13.57 -1.7,21.971 h -27.3 c 0,7.529 1.68,15.04 5.01,21.96 h 23.981 c 2.79,16.229 8.82,25.449 16.229,28.379 1.79,0.19 3.601,0.28 5.4,0.28 v -28.579 h 21.1 0.521 c -0.09,0.539 -0.201,1.049 -0.3,1.569 -2.901,15.17 -8.75,23.88 -15.88,26.71 5.42,-0.58 10.779,-2 15.819,-4.34 1.01,-0.46 2,-1 2.99,-1.54 l 1.621,11.51 1.87,13.341 C 9.5,-4.54 5.61,0 0,0"
             style="fill:#2350a9;fill-opacity:1;fill-rule:nonzero;stroke:none"
             id="path3843"
             inkscape:connector-curvature="0" /></g><g
           id="g3845"
           transform="translate(246.7437,319.6758)"><path
             d="m 0,0 h -23.96 c -0.09,0.539 -0.2,1.05 -0.3,1.569 -2.9,15.17 -8.75,23.88 -15.88,26.71 5.42,-0.58 10.78,-2 15.82,-4.34 1.009,-0.46 2,-1 2.99,-1.54 4.15,-2.259 8.05,-5.11 11.559,-8.62 C -5.65,9.649 -2.4,4.979 0,0"
             style="fill:#d3d2d2;fill-opacity:1;fill-rule:nonzero;stroke:none"
             id="path3847"
             inkscape:connector-curvature="0" /></g><g
           id="g3849"
           transform="translate(195.7231,247.3154)"><path
             d="m 0,0 c -5.42,0.58 -10.77,2.01 -15.819,4.34 -1.011,0.47 -2,1 -2.991,1.54 -4.139,2.269 -8.049,5.12 -11.559,8.64 -4.131,4.12 -7.37,8.79 -9.78,13.77 h 23.979 c 0.09,-0.54 0.2,-1.04 0.29,-1.561 C -12.97,11.56 -7.13,2.84 0,0"
             style="fill:#d3d2d2;fill-opacity:1;fill-rule:nonzero;stroke:none"
             id="path3851"
             inkscape:connector-curvature="0" /></g><g
           id="g3853"
           transform="translate(222.7896,275.666)"><path
             d="m 0,0 h 23.979 c 3.336,6.927 5.019,14.443 5.015,21.973 H 1.694 C 1.694,13.566 1.083,6.277 0,0"
             style="fill:#d3d2d2;fill-opacity:1;fill-rule:nonzero;stroke:none"
             id="path3855"
             inkscape:connector-curvature="0" /></g><g
           id="g3857"
           transform="translate(246.7837,319.5957)"><path
             d="m 0,0 h -23.99 c 0,0.029 -0.01,0.05 -0.01,0.08 H -0.04 C -0.03,0.05 -0.01,0.029 0,0"
             style="fill:#d3d2d2;fill-opacity:1;fill-rule:nonzero;stroke:none"
             id="path3859"
             inkscape:connector-curvature="0" /></g><g
           id="g3861"
           transform="translate(222.7896,275.666)"><path
             d="m 0,0 h -16.247 c -0.21,-0.014 -0.415,-0.062 -0.628,-0.062 h -4.749 v -28.583 c 1.803,0 3.61,0.092 5.405,0.282 C -8.813,-25.437 -2.789,-16.213 0,0"
             style="fill:#d3d2d2;fill-opacity:1;fill-rule:nonzero;stroke:none"
             id="path3863"
             inkscape:connector-curvature="0" /></g><g
           id="g3865"
           transform="translate(224.4839,297.6357)"><path
             d="M 0,0 H -23.32 V 21.96 H -1.69 C -0.61,15.689 0,8.399 0,0"
             style="fill:#d3d2d2;fill-opacity:1;fill-rule:nonzero;stroke:none"
             id="path3867"
             inkscape:connector-curvature="0" /></g><g
           id="g3869"
           transform="translate(201.1636,297.6357)"><path
             d="M 0,0 V -21.971 H -21.62 C -22.71,-15.69 -23.32,-8.4 -23.32,0 Z"
             style="fill:#d3d2d2;fill-opacity:1;fill-rule:nonzero;stroke:none"
             id="path3871"
             inkscape:connector-curvature="0" /></g><g
           id="g3873"
           transform="translate(179.5532,275.6055)"><path
             d="m 0,0 h -23.979 c 0,0.02 -0.021,0.04 -0.031,0.06 h 24 C -0.01,0.04 -0.01,0.02 0,0"
             style="fill:#d3d2d2;fill-opacity:1;fill-rule:nonzero;stroke:none"
             id="path3875"
             inkscape:connector-curvature="0" /></g><g
           id="g3877"
           transform="translate(179.5337,319.5957)"><path
             d="m 0,0 c -1.08,-6.271 -1.69,-13.561 -1.69,-21.96 h -27.3 c 0,7.529 1.679,15.04 5.01,21.96 z"
             style="fill:#d3d2d2;fill-opacity:1;fill-rule:nonzero;stroke:none"
             id="path3879"
             inkscape:connector-curvature="0" /></g><g
           id="g3881"
           transform="translate(201.1636,348.2549)"><path
             d="m 0,0 v -28.579 h -4.76 c -0.261,0 -0.511,-0.061 -0.761,-0.08 H -21.63 c 2.79,16.229 8.82,25.449 16.23,28.38 C -3.61,-0.09 -1.8,0 0,0"
             style="fill:#d3d2d2;fill-opacity:1;fill-rule:nonzero;stroke:none"
             id="path3883"
             inkscape:connector-curvature="0" /></g><g
           id="g3885"
           transform="translate(201.1655,275.6035)"><path
             d="M 0,0 H 4.749 C 4.962,0 5.167,0.049 5.377,0.062 H 0 Z"
             style="fill:#d3d2d2;fill-opacity:1;fill-rule:nonzero;stroke:none"
             id="path3887"
             inkscape:connector-curvature="0" /></g><g
           id="g3889"
           transform="translate(201.1655,319.6738)"><path
             d="M 0,0 H -4.758 C -5.019,0 -5.269,-0.056 -5.526,-0.076 H 0 Z"
             style="fill:#d3d2d2;fill-opacity:1;fill-rule:nonzero;stroke:none"
             id="path3891"
             inkscape:connector-curvature="0" /></g><g
           id="g3893"
           transform="translate(222.7935,319.5957)"><path
             d="m 0,0 h -0.54 l 0.01,0.08 h 0.52 C -0.01,0.05 0,0.029 0,0"
             style="fill:#e9e9e9;fill-opacity:1;fill-rule:nonzero;stroke:none"
             id="path3895"
             inkscape:connector-curvature="0" /></g><g
           id="g3897"
           transform="translate(222.2632,319.6758)"><path
             d="M 0,0 -0.01,-0.08 H -21.1 V 0 Z"
             style="fill:#e9e9e9;fill-opacity:1;fill-rule:nonzero;stroke:none"
             id="path3899"
             inkscape:connector-curvature="0" /></g></g></g></g></svg>