<?xml version="1.0" encoding="UTF-8" standalone="no"?>
<!-- Created with Inkscape (http://www.inkscape.org/) -->

<svg
   xmlns:dc="http://purl.org/dc/elements/1.1/"
   xmlns:cc="http://creativecommons.org/ns#"
   xmlns:rdf="http://www.w3.org/1999/02/22-rdf-syntax-ns#"
   xmlns:svg="http://www.w3.org/2000/svg"
   xmlns="http://www.w3.org/2000/svg"
   xmlns:sodipodi="http://sodipodi.sourceforge.net/DTD/sodipodi-0.dtd"
   xmlns:inkscape="http://www.inkscape.org/namespaces/inkscape"
   version="1.1"
   id="svg3713"
   xml:space="preserve"
   width="227.3103"
   height="387.00211"
   viewBox="0 0 227.3103 387.00211"
   sodipodi:docname="batm-logo.svg"
   inkscape:version="0.92.3 (2405546, 2018-03-11)"><metadata
     id="metadata3719"><rdf:RDF><cc:Work
         rdf:about=""><dc:format>image/svg+xml</dc:format><dc:type
           rdf:resource="http://purl.org/dc/dcmitype/StillImage" /></cc:Work></rdf:RDF></metadata><defs
     id="defs3717"><clipPath
       clipPathUnits="userSpaceOnUse"
       id="clipPath3729"><path
         d="M 0,595.28 H 841.89 V 0 H 0 Z"
         id="path3727"
         inkscape:connector-curvature="0" /></clipPath><clipPath
       clipPathUnits="userSpaceOnUse"
       id="clipPath13595"><path
         d="M 0,0 H 2531.338 V 5924.409 H 0 Z"
         id="path13593"
         inkscape:connector-curvature="0" /></clipPath></defs><sodipodi:namedview
     pagecolor="#ffffff"
     bordercolor="#666666"
     borderopacity="1"
     objecttolerance="10"
     gridtolerance="10"
     guidetolerance="10"
     inkscape:pageopacity="0"
     inkscape:pageshadow="2"
     inkscape:window-width="2304"
     inkscape:window-height="1262"
     id="namedview3715"
     showgrid="false"
     inkscape:zoom="0.97895108"
     inkscape:cx="121.38135"
     inkscape:cy="398.74939"
     inkscape:window-x="-11"
     inkscape:window-y="-11"
     inkscape:window-maximized="1"
     inkscape:current-layer="g3725" /><g
     id="g3721"
     inkscape:groupmode="layer"
     inkscape:label="BATM Logo Opsi"
     transform="matrix(1.3333333,0,0,-1.3333333,-154.56323,502.76692)"><g
       id="g3723"><g
         id="g3725"
         clip-path="url(#clipPath3729)"><g
           id="g3829"
           transform="translate(277.5835,319.6758)"><path
             d="m 0,0 h -30.84 c 0.01,-0.03 0.03,-0.051 0.04,-0.08 h -23.99 c 1.08,-6.271 1.69,-13.561 1.69,-21.96 h 27.3 c 0,-7.53 -1.679,-15.04 -5.01,-21.971 l -0.004,0.001 H -54.79 c 1.08,6.281 1.69,13.57 1.69,21.97 h -5.32 -18 v -21.971 h 5.38 16.246 c -2.788,-16.207 -8.81,-25.429 -16.211,-28.358 -0.001,-0.001 -0.003,-0.001 -0.005,-0.001 -1.8,-0.191 -3.61,-0.28 -5.41,-0.28 v 28.58 0.059 h -21.09 -0.53 c 0,-0.019 0,-0.04 0.01,-0.059 0.09,-0.54 0.2,-1.04 0.29,-1.561 2.91,-15.17 8.75,-23.89 15.88,-26.729 -5.42,0.58 -10.77,2.009 -15.82,4.339 -1.01,0.47 -2,1 -2.99,1.541 l -1.62,-11.5 -1.87,-13.35 c -0.79,-5.601 3.12,-10.141 8.72,-10.141 h 81.18 c 5.6,0 10.79,4.54 11.57,10.141 L 8.72,-10.15 C 9.51,-4.54 5.61,0 0,0"
             style="fill:#88d040;fill-opacity:1;fill-rule:nonzero;stroke:none"
             id="path3831"
             inkscape:connector-curvature="0" /></g><g
           id="g3833"
           transform="translate(195.6431,319.5957)"><path
             d="m 0,0 c -5.3,-0.391 -10.06,-4.721 -10.81,-10.07 l -1.669,-11.89 h 18 V 0 Z"
             style="fill:#88d040;fill-opacity:1;fill-rule:nonzero;stroke:none"
             id="path3835"
             inkscape:connector-curvature="0" /></g><g
           id="g3837"
           transform="translate(183.1636,297.6357)"><path
             d="m 0,0 1.67,11.89 c 0.75,5.349 5.51,9.679 10.809,10.07 H -3.63 C -4.71,15.689 -5.32,8.399 -5.32,0 Z"
             style="fill:#2350a9;fill-opacity:1;fill-rule:nonzero;stroke:none"
             id="path3839"
             inkscape:connector-curvature="0" /></g><g
           id="g3841"
           transform="translate(220.1831,377.0752)"><path
             d="m 0,0 h -81.18 c -5.61,0 -10.79,-4.54 -11.57,-10.14 l -11.409,-81.19 c -0.79,-5.59 3.109,-10.14 8.729,-10.14 h 30.821 c 0,0.02 -0.021,0.04 -0.031,0.06 h 24 c -1.089,6.28 -1.7,13.57 -1.7,21.971 h -27.3 c 0,7.529 1.68,15.04 5.01,21.96 h 23.981 c 2.79,16.229 8.82,25.449 16.229,28.379 1.79,0.19 3.601,0.28 5.4,0.28 v -28.579 h 21.1 0.521 c -0.09,0.539 -0.201,1.049 -0.3,1.569 -2.901,15.17 -8.75,23.88 -15.88,26.71 5.42,-0.58 10.779,-2 15.819,-4.34 1.01,-0.46 2,-1 2.99,-1.54 l 1.621,11.51 1.87,13.341 C 9.5,-4.54 5.61,0 0,0"
             style="fill:#2350a9;fill-opacity:1;fill-rule:nonzero;stroke:none"
             id="path3843"
             inkscape:connector-curvature="0" /></g><g
           id="g3845"
           transform="translate(246.7437,319.6758)"><path
             d="m 0,0 h -23.96 c -0.09,0.539 -0.2,1.05 -0.3,1.569 -2.9,15.17 -8.75,23.88 -15.88,26.71 5.42,-0.58 10.78,-2 15.82,-4.34 1.009,-0.46 2,-1 2.99,-1.54 4.15,-2.259 8.05,-5.11 11.559,-8.62 C -5.65,9.649 -2.4,4.979 0,0"
             style="fill:#d3d2d2;fill-opacity:1;fill-rule:nonzero;stroke:none"
             id="path3847"
             inkscape:connector-curvature="0" /></g><g
           id="g3849"
           transform="translate(195.7231,247.3154)"><path
             d="m 0,0 c -5.42,0.58 -10.77,2.01 -15.819,4.34 -1.011,0.47 -2,1 -2.991,1.54 -4.139,2.269 -8.049,5.12 -11.559,8.64 -4.131,4.12 -7.37,8.79 -9.78,13.77 h 23.979 c 0.09,-0.54 0.2,-1.04 0.29,-1.561 C -12.97,11.56 -7.13,2.84 0,0"
             style="fill:#d3d2d2;fill-opacity:1;fill-rule:nonzero;stroke:none"
             id="path3851"
             inkscape:connector-curvature="0" /></g><g
           id="g3853"
           transform="translate(222.7896,275.666)"><path
             d="m 0,0 h 23.979 c 3.336,6.927 5.019,14.443 5.015,21.973 H 1.694 C 1.694,13.566 1.083,6.277 0,0"
             style="fill:#d3d2d2;fill-opacity:1;fill-rule:nonzero;stroke:none"
             id="path3855"
             inkscape:connector-curvature="0" /></g><g
           id="g3857"
           transform="translate(246.7837,319.5957)"><path
             d="m 0,0 h -23.99 c 0,0.029 -0.01,0.05 -0.01,0.08 H -0.04 C -0.03,0.05 -0.01,0.029 0,0"
             style="fill:#d3d2d2;fill-opacity:1;fill-rule:nonzero;stroke:none"
             id="path3859"
             inkscape:connector-curvature="0" /></g><g
           id="g3861"
           transform="translate(222.7896,275.666)"><path
             d="m 0,0 h -16.247 c -0.21,-0.014 -0.415,-0.062 -0.628,-0.062 h -4.749 v -28.583 c 1.803,0 3.61,0.092 5.405,0.282 C -8.813,-25.437 -2.789,-16.213 0,0"
             style="fill:#d3d2d2;fill-opacity:1;fill-rule:nonzero;stroke:none"
             id="path3863"
             inkscape:connector-curvature="0" /></g><g
           id="g3865"
           transform="translate(224.4839,297.6357)"><path
             d="M 0,0 H -23.32 V 21.96 H -1.69 C -0.61,15.689 0,8.399 0,0"
             style="fill:#d3d2d2;fill-opacity:1;fill-rule:nonzero;stroke:none"
             id="path3867"
             inkscape:connector-curvature="0" /></g><g
           id="g3869"
           transform="translate(201.1636,297.6357)"><path
             d="M 0,0 V -21.971 H -21.62 C -22.71,-15.69 -23.32,-8.4 -23.32,0 Z"
             style="fill:#d3d2d2;fill-opacity:1;fill-rule:nonzero;stroke:none"
             id="path3871"
             inkscape:connector-curvature="0" /></g><g
           id="g3873"
           transform="translate(179.5532,275.6055)"><path
             d="m 0,0 h -23.979 c 0,0.02 -0.021,0.04 -0.031,0.06 h 24 C -0.01,0.04 -0.01,0.02 0,0"
             style="fill:#d3d2d2;fill-opacity:1;fill-rule:nonzero;stroke:none"
             id="path3875"
             inkscape:connector-curvature="0" /></g><g
           id="g3877"
           transform="translate(179.5337,319.5957)"><path
             d="m 0,0 c -1.08,-6.271 -1.69,-13.561 -1.69,-21.96 h -27.3 c 0,7.529 1.679,15.04 5.01,21.96 z"
             style="fill:#d3d2d2;fill-opacity:1;fill-rule:nonzero;stroke:none"
             id="path3879"
             inkscape:connector-curvature="0" /></g><g
           id="g3881"
           transform="translate(201.1636,348.2549)"><path
             d="m 0,0 v -28.579 h -4.76 c -0.261,0 -0.511,-0.061 -0.761,-0.08 H -21.63 c 2.79,16.229 8.82,25.449 16.23,28.38 C -3.61,-0.09 -1.8,0 0,0"
             style="fill:#d3d2d2;fill-opacity:1;fill-rule:nonzero;stroke:none"
             id="path3883"
             inkscape:connector-curvature="0" /></g><g
           id="g3885"
           transform="translate(201.1655,275.6035)"><path
             d="M 0,0 H 4.749 C 4.962,0 5.167,0.049 5.377,0.062 H 0 Z"
             style="fill:#d3d2d2;fill-opacity:1;fill-rule:nonzero;stroke:none"
             id="path3887"
             inkscape:connector-curvature="0" /></g><g
           id="g3889"
           transform="translate(201.1655,319.6738)"><path
             d="M 0,0 H -4.758 C -5.019,0 -5.269,-0.056 -5.526,-0.076 H 0 Z"
             style="fill:#d3d2d2;fill-opacity:1;fill-rule:nonzero;stroke:none"
             id="path3891"
             inkscape:connector-curvature="0" /></g><g
           id="g3893"
           transform="translate(222.7935,319.5957)"><path
             d="m 0,0 h -0.54 l 0.01,0.08 h 0.52 C -0.01,0.05 0,0.029 0,0"
             style="fill:#e9e9e9;fill-opacity:1;fill-rule:nonzero;stroke:none"
             id="path3895"
             inkscape:connector-curvature="0" /></g><g
           id="g3897"
           transform="translate(222.2632,319.6758)"><path
             d="M 0,0 -0.01,-0.08 H -21.1 V 0 Z"
             style="fill:#e9e9e9;fill-opacity:1;fill-rule:nonzero;stroke:none"
             id="path3899"
             inkscape:connector-curvature="0" /></g><g
           id="g13591"
           clip-path="url(#clipPath13595)"
           transform="matrix(0.1,0,0,0.1,96.418716,-92.433392)"><g
             id="g13597"
             transform="translate(762.0705,2804.6709)"><path
               d="m 0,0 v -53.323 h 48.562 c 8.678,0 15.432,1.17 20.275,3.519 8.727,4.346 13.131,12.668 13.131,24.971 0,10.393 -4.258,17.552 -12.758,21.429 C 64.481,-1.235 57.842,-0.13 49.228,0 Z m 0,77.166 v -44.1 h 48.627 c 8.671,0 15.765,1.649 21.152,4.973 5.413,3.291 8.119,9.142 8.119,17.561 0,9.312 -3.584,15.471 -10.751,18.438 -6.152,2.104 -14.067,3.128 -23.64,3.128 z M 108.598,90.59 c 6.094,-8.499 9.141,-18.673 9.141,-30.505 0,-12.238 -3.088,-22.022 -9.23,-29.457 -3.43,-4.137 -8.541,-7.94 -15.253,-11.369 10.223,-3.738 17.926,-9.605 23.094,-17.658 5.2,-8.037 7.793,-17.804 7.793,-29.295 0,-11.847 -2.958,-22.468 -8.898,-31.886 -3.779,-6.241 -8.5,-11.458 -14.164,-15.7 -6.395,-4.908 -13.92,-8.248 -22.583,-10.06 -8.679,-1.812 -18.088,-2.706 -28.246,-2.706 h -90.094 v 199.935 h 96.611 c 24.379,-0.382 41.639,-7.452 51.829,-21.299"
               style="fill:#424962;fill-opacity:1;fill-rule:nonzero;stroke:none"
               id="path13599"
               inkscape:connector-curvature="0" /></g><g
             id="g13601"
             transform="translate(949.2397,2864.4792)"><path
               d="m 0,0 v -89.127 c 0,-8.394 0.991,-14.741 2.966,-18.99 3.502,-7.501 10.369,-11.271 20.657,-11.271 13.14,0 22.119,5.347 26.986,16.024 2.544,5.77 3.771,13.424 3.771,22.916 V 0 H 93.581 V -147.854 H 56.005 v 20.892 c -0.333,-0.463 -1.268,-1.82 -2.722,-4.08 -1.422,-2.25 -3.136,-4.242 -5.128,-5.964 -6.038,-5.421 -11.872,-9.134 -17.52,-11.125 -5.647,-1.983 -12.238,-2.99 -19.787,-2.99 -21.826,0 -36.527,7.882 -44.108,23.606 -4.242,8.679 -6.347,21.453 -6.347,38.388 V 0 Z"
               style="fill:#424962;fill-opacity:1;fill-rule:nonzero;stroke:none"
               id="path13603"
               inkscape:connector-curvature="0" /></g><g
             id="g13605"
             transform="translate(1253.7496,2863.9109)"><path
               d="m 0,0 c 6.338,-2.527 12.059,-6.957 17.252,-13.278 4.136,-5.136 6.956,-11.474 8.394,-18.991 0.919,-4.973 1.349,-12.262 1.349,-21.827 l -0.276,-93.19 h -39.623 v 94.125 c 0,5.623 -0.886,10.214 -2.681,13.838 -3.446,6.867 -9.76,10.296 -19.024,10.296 -10.637,0 -18,-4.421 -22.079,-13.262 -2.08,-4.696 -3.112,-10.369 -3.112,-16.951 v -88.046 h -38.957 v 88.046 c 0,8.744 -0.894,15.131 -2.698,19.121 -3.25,7.135 -9.597,10.71 -19.112,10.71 -11.035,0 -18.479,-3.575 -22.257,-10.71 -2.089,-4.087 -3.113,-10.149 -3.113,-18.178 v -88.989 H -185.17 V 0.292 h 37.608 v -21.567 c 4.778,7.688 9.329,13.165 13.546,16.399 7.509,5.802 17.22,8.687 29.173,8.687 11.287,0 20.421,-2.479 27.409,-7.451 5.623,-4.616 9.833,-10.548 12.726,-17.78 5.062,8.686 11.369,15.057 18.869,19.128 7.939,4.063 16.821,6.103 26.581,6.103 C -12.725,3.811 -6.347,2.551 0,0"
               style="fill:#424962;fill-opacity:1;fill-rule:nonzero;stroke:none"
               id="path13607"
               inkscape:connector-curvature="0" /></g><path
             d="m 1308.487,2864.479 h 39.193 v -147.854 h -39.193 z m 39.193,17.635 h -39.193 v 35.689 h 39.193 z"
             style="fill:#424962;fill-opacity:1;fill-rule:nonzero;stroke:none"
             id="path13609"
             inkscape:connector-curvature="0" /><g
             id="g13611"
             transform="translate(771.3572,2497.21)"><path
               d="M 0,0 H 51.178 L 25.963,78.677 Z M 2.755,124.386 H 50.048 L 120.746,-75.548 H 75.475 l -13.196,41.101 h -73.647 l -13.546,-41.101 h -43.703 z"
               style="fill:#424962;fill-opacity:1;fill-rule:nonzero;stroke:none"
               id="path13613"
               inkscape:connector-curvature="0" /></g><g
             id="g13615"
             transform="translate(1093.3224,2568.9475)"><path
               d="m 0,0 c 6.338,-2.527 12.083,-6.957 17.251,-13.278 4.153,-5.136 6.981,-11.474 8.403,-18.991 0.886,-4.973 1.357,-12.262 1.357,-21.827 l -0.293,-93.19 H -12.88 v 94.125 c 0,5.623 -0.87,10.214 -2.69,13.838 -3.446,6.867 -9.76,10.296 -19.007,10.296 -10.645,0 -18.023,-4.421 -22.102,-13.262 -2.056,-4.696 -3.113,-10.369 -3.113,-16.951 v -88.046 h -38.924 v 88.046 c 0,8.744 -0.919,15.131 -2.722,19.121 -3.259,7.135 -9.638,10.71 -19.13,10.71 -11.034,0 -18.446,-3.575 -22.257,-10.71 -2.072,-4.087 -3.112,-10.149 -3.112,-18.178 v -88.989 h -39.217 V 0.292 h 37.6 v -21.567 c 4.77,7.688 9.312,13.165 13.554,16.399 7.5,5.802 17.211,8.687 29.181,8.687 11.303,0 20.429,-2.479 27.402,-7.451 5.606,-4.616 9.856,-10.548 12.725,-17.78 5.078,8.686 11.352,15.057 18.877,19.128 7.947,4.063 16.821,6.103 26.564,6.103 C -12.734,3.811 -6.306,2.551 0,0"
               style="fill:#424962;fill-opacity:1;fill-rule:nonzero;stroke:none"
               id="path13617"
               inkscape:connector-curvature="0" /></g><g
             id="g13619"
             transform="translate(1232.4987,2493.553)"><path
               d="m 0,0 c -2.455,-1.528 -4.957,-2.779 -7.46,-3.738 -2.544,-0.943 -5.989,-1.836 -10.393,-2.665 l -8.785,-1.609 c -8.288,-1.455 -14.188,-3.194 -17.796,-5.282 -6.078,-3.527 -9.142,-9.004 -9.142,-16.415 0,-6.614 1.861,-11.377 5.559,-14.301 3.77,-2.943 8.263,-4.422 13.594,-4.422 8.452,0 16.253,2.447 23.363,7.346 7.111,4.86 10.808,13.774 11.06,26.695 z m -23.631,18.04 c 7.175,0.91 12.352,2.04 15.431,3.38 5.6,2.373 8.346,6.022 8.346,11.003 0,6.046 -2.129,10.223 -6.404,12.539 -4.225,2.299 -10.482,3.454 -18.746,3.454 -9.232,0 -15.822,-2.26 -19.666,-6.794 -2.787,-3.331 -4.599,-7.841 -5.509,-13.554 h -37.307 c 0.829,12.937 4.461,23.557 10.913,31.878 10.263,13.011 27.873,19.528 52.861,19.528 16.252,0 30.717,-3.203 43.32,-9.621 C 32.252,63.44 38.526,51.308 38.526,33.496 v -67.821 c 0,-4.713 0.113,-10.401 0.284,-17.081 0.268,-5.071 1.048,-8.508 2.3,-10.304 1.275,-1.812 3.153,-3.307 5.696,-4.486 v -5.695 H 4.77 c -1.194,2.974 -2.016,5.785 -2.446,8.41 -0.463,2.624 -0.789,5.631 -1.105,8.955 -5.355,-5.802 -11.547,-10.718 -18.552,-14.79 -8.354,-4.786 -17.821,-7.191 -28.36,-7.191 -13.465,0 -24.582,3.811 -33.342,11.474 -8.816,7.63 -13.181,18.454 -13.181,32.48 0,18.162 7.054,31.334 21.153,39.477 7.768,4.412 19.153,7.59 34.186,9.491 z"
               style="fill:#424962;fill-opacity:1;fill-rule:nonzero;stroke:none"
               id="path13621"
               inkscape:connector-curvature="0" /></g><g
             id="g13623"
             transform="translate(1381.4097,2572.9617)"><path
               d="m 0,0 c 0.471,-0.032 1.569,-0.114 3.291,-0.203 v -39.59 c -2.43,0.251 -4.592,0.446 -6.493,0.527 -1.901,0.098 -3.437,0.138 -4.607,0.138 -15.586,0 -25.996,-5.062 -31.343,-15.187 -3.006,-5.696 -4.469,-14.473 -4.469,-26.313 V -151.3 H -82.529 V -3.446 h 36.852 v -25.775 c 5.964,9.848 11.173,16.593 15.61,20.201 7.2,6.062 16.658,9.085 28.214,9.085 C -1.137,0.065 -0.512,0.032 0,0"
               style="fill:#424962;fill-opacity:1;fill-rule:nonzero;stroke:none"
               id="path13625"
               inkscape:connector-curvature="0" /></g><g
             id="g13627"
             transform="translate(1394.9557,2540.6199)"><path
               d="m 0,0 v 27.531 h 20.608 v 41.24 H 58.841 V 27.531 H 82.854 V 0 H 58.841 v -78.125 c 0,-6.062 0.764,-9.84 2.308,-11.344 1.553,-1.479 6.281,-2.227 14.115,-2.227 1.187,0 2.421,0.025 3.746,0.058 1.276,0.048 2.6,0.121 3.844,0.219 v -28.896 l -18.324,-0.667 c -18.219,-0.642 -30.758,2.511 -37.43,9.467 -4.331,4.437 -6.492,11.271 -6.492,20.502 V 0 Z"
               style="fill:#424962;fill-opacity:1;fill-rule:nonzero;stroke:none"
               id="path13629"
               inkscape:connector-curvature="0" /></g><g
             id="g13631"
             transform="translate(1603.3663,2568.687)"><path
               d="m 0,0 c 7.395,-3.177 13.522,-8.012 18.292,-14.53 4.03,-5.525 6.525,-11.197 7.403,-17.031 0.91,-5.835 1.349,-15.351 1.349,-28.58 v -86.884 h -39.469 v 90.037 c 0,7.955 -1.341,14.383 -4.03,19.283 -3.519,6.867 -10.125,10.32 -19.918,10.32 -10.149,0 -17.844,-3.429 -23.086,-10.263 -5.257,-6.834 -7.882,-16.586 -7.882,-29.262 v -80.115 h -38.68 V 52.219 h 38.68 v -70.551 c 5.558,8.614 12.019,14.603 19.348,17.983 7.363,3.405 15.074,5.095 23.192,5.095 C -15.708,4.746 -7.46,3.185 0,0"
               style="fill:#424962;fill-opacity:1;fill-rule:nonzero;stroke:none"
               id="path13633"
               inkscape:connector-curvature="0" /></g><g
             id="g13635"
             transform="translate(1743.4204,2493.553)"><path
               d="m 0,0 c -2.487,-1.528 -4.957,-2.779 -7.501,-3.738 -2.511,-0.943 -5.981,-1.836 -10.385,-2.665 l -8.784,-1.609 c -8.256,-1.455 -14.189,-3.194 -17.772,-5.282 -6.103,-3.527 -9.134,-9.004 -9.134,-16.415 0,-6.614 1.861,-11.377 5.566,-14.301 3.738,-2.943 8.265,-4.422 13.595,-4.422 8.427,0 16.228,2.447 23.282,7.346 7.151,4.86 10.881,13.774 11.133,26.695 z m -23.647,18.04 c 7.191,0.91 12.335,2.04 15.447,3.38 5.559,2.373 8.321,6.022 8.321,11.003 0,6.046 -2.104,10.223 -6.387,12.539 -4.249,2.299 -10.514,3.454 -18.763,3.454 -9.247,0 -15.83,-2.26 -19.649,-6.794 -2.747,-3.331 -4.616,-7.841 -5.509,-13.554 h -37.299 c 0.796,12.937 4.453,23.557 10.872,31.878 10.272,13.011 27.898,19.528 52.869,19.528 16.285,0 30.716,-3.203 43.361,-9.621 C 32.195,63.44 38.501,51.308 38.501,33.496 v -67.821 c 0,-4.713 0.106,-10.401 0.293,-17.081 0.251,-5.071 1.064,-8.508 2.299,-10.304 1.26,-1.812 3.153,-3.307 5.681,-4.486 v -5.695 H 4.737 c -1.178,2.974 -1.983,5.785 -2.421,8.41 -0.464,2.624 -0.846,5.631 -1.105,8.955 -5.347,-5.802 -11.54,-10.718 -18.512,-14.79 -8.394,-4.786 -17.853,-7.191 -28.433,-7.191 -13.448,0 -24.581,3.811 -33.325,11.474 -8.793,7.63 -13.164,18.454 -13.164,32.48 0,18.162 7.061,31.334 21.16,39.477 7.752,4.412 19.153,7.59 34.154,9.491 z"
               style="fill:#424962;fill-opacity:1;fill-rule:nonzero;stroke:none"
               id="path13637"
               inkscape:connector-curvature="0" /></g><g
             id="g13639"
             transform="translate(699.4922,2311.5239)"><path
               d="M 0,0 H 145.547 V -16.098 H 82.236 V -200 H 63.36 V -16.098 H 0 Z"
               style="fill:#424962;fill-opacity:1;fill-rule:nonzero;stroke:none"
               id="path13641"
               inkscape:connector-curvature="0" /></g><g
             id="g13643"
             transform="translate(956.9927,2193.4678)"><path
               d="m 0,0 c 0,7.029 -0.959,13.676 -2.909,19.852 -1.934,6.216 -4.802,11.588 -8.581,16.122 -3.836,4.534 -8.565,8.142 -14.343,10.84 -5.745,2.666 -12.295,4.015 -19.705,4.015 -7.436,0 -13.937,-1.382 -19.577,-4.145 -5.671,-2.795 -10.49,-6.5 -14.448,-11.149 -3.998,-4.615 -7.183,-9.978 -9.588,-16.106 C -91.573,13.343 -93.149,6.866 -93.857,0 Z m -93.857,-13.888 c 0,-7.777 0.984,-15.131 3.032,-22.079 2.031,-6.939 5.038,-12.969 9.02,-18.064 4.006,-5.087 9.02,-9.167 15.147,-12.222 6.127,-3.055 13.131,-4.575 21.12,-4.575 10.921,0 20.274,2.852 28.084,8.606 7.76,5.737 12.952,13.888 15.512,24.443 H 16.7 C 14.652,-44.621 11.97,-50.975 8.614,-56.81 5.306,-62.628 1.13,-67.723 -3.892,-72.095 c -4.965,-4.332 -10.905,-7.728 -17.772,-10.125 -6.858,-2.406 -14.814,-3.624 -23.874,-3.624 -11.474,0 -21.397,1.942 -29.726,5.842 -8.321,3.893 -15.188,9.215 -20.542,15.976 -5.38,6.761 -9.402,14.725 -11.979,23.891 -2.6,9.149 -3.867,19.031 -3.867,29.595 0,10.54 1.519,20.461 4.575,29.717 3.071,9.256 7.402,17.349 13.05,24.313 5.664,6.924 12.563,12.401 20.705,16.375 8.142,3.99 17.415,5.989 27.784,5.989 19.827,0 35.372,-6.835 46.668,-20.437 11.311,-13.604 16.861,-33.375 16.666,-59.305 z"
               style="fill:#424962;fill-opacity:1;fill-rule:nonzero;stroke:none"
               id="path13645"
               inkscape:connector-curvature="0" /></g><g
             id="g13647"
             transform="translate(1000.6055,2111.5234)"><path
               d="M 0,0 V 200 H 16.7 V 75.557 l 70.542,68.349 h 22.802 L 56.128,91.947 116.39,0 H 97.798 L 43.882,80.278 16.7,54.454 V 0 Z"
               style="fill:#424962;fill-opacity:1;fill-rule:nonzero;stroke:none"
               id="path13649"
               inkscape:connector-curvature="0" /></g><g
             id="g13651"
             transform="translate(1151.735,2111.5234)"><path
               d="M 0,0 H -16.642 V 143.906 H 0 v -20.015 c 6.68,7.046 13.563,12.782 20.69,17.236 7.134,4.436 15.715,6.671 25.719,6.671 8.882,0 17.121,-1.536 24.703,-4.599 7.614,-3.048 14.018,-8.378 19.178,-15.969 3.51,-5.192 5.599,-10.514 6.24,-15.975 0.643,-5.453 0.975,-11.157 0.975,-17.098 V 0 H 80.823 v 93.897 c 0,12.953 -2.845,22.688 -8.598,29.165 -5.753,6.468 -15.26,9.711 -28.604,9.711 -5.201,0 -9.897,-0.764 -14.18,-2.349 -4.29,-1.568 -8.077,-3.656 -11.515,-6.265 -3.445,-2.568 -6.338,-5.55 -8.735,-8.874 C 6.754,111.962 4.924,108.427 3.625,104.722 1.95,100.098 0.919,95.644 0.553,91.386 0.179,87.12 0,82.521 0,77.523 Z"
               style="fill:#424962;fill-opacity:1;fill-rule:nonzero;stroke:none"
               id="path13653"
               inkscape:connector-curvature="0" /></g><g
             id="g13655"
             transform="translate(1390.0826,2183.4807)"><path
               d="m 0,0 c 0,8.516 -0.918,16.479 -2.779,23.882 -1.861,7.403 -4.737,13.855 -8.638,19.308 -3.876,5.453 -8.866,9.759 -14.984,12.929 -6.12,3.137 -13.595,4.697 -22.494,4.697 -8.695,0 -16.147,-1.715 -22.363,-5.136 -6.209,-3.413 -11.263,-7.956 -15.123,-13.595 -3.908,-5.647 -6.761,-12.149 -8.63,-19.462 C -96.863,15.301 -97.789,7.769 -97.789,0 c 0,-8.89 1.072,-17.098 3.201,-24.598 2.129,-7.484 5.241,-13.936 9.32,-19.299 4.072,-5.372 9.143,-9.549 15.261,-12.499 6.111,-2.974 13.149,-4.445 21.112,-4.445 8.711,0 16.155,1.698 22.363,5.144 6.208,3.414 11.239,8.004 15.115,13.75 3.901,5.737 6.777,12.221 8.638,19.429 C -0.918,-15.302 0,-7.785 0,0 m -48.895,-75.857 c -9.288,0.203 -17.91,1.86 -25.963,5.005 -8.061,3.153 -15.106,7.874 -21.079,14.18 -6.07,6.298 -10.816,14.156 -14.326,23.599 -3.519,9.442 -5.29,20.46 -5.29,33.073 0,10.564 1.389,20.396 4.176,29.579 2.763,9.182 6.94,17.178 12.466,24.021 5.583,6.858 12.53,12.278 20.835,16.252 8.354,3.99 18.065,5.989 29.181,5.989 11.312,0 21.111,-1.999 29.458,-5.989 8.321,-3.974 15.261,-9.362 20.851,-16.098 5.542,-6.777 9.678,-14.781 12.327,-24.045 2.714,-9.256 4.03,-19.145 4.03,-29.709 0,-11.491 -1.543,-21.875 -4.737,-31.124 -3.153,-9.263 -7.614,-17.227 -13.448,-23.898 -5.818,-6.648 -12.864,-11.791 -21.112,-15.416 -8.248,-3.6 -17.35,-5.419 -27.369,-5.419"
               style="fill:#424962;fill-opacity:1;fill-rule:nonzero;stroke:none"
               id="path13657"
               inkscape:connector-curvature="0" /></g><path
             d="m 1435.353,2311.524 h 16.683 v -200 h -16.683 z"
             style="fill:#424962;fill-opacity:1;fill-rule:nonzero;stroke:none"
             id="path13659"
             inkscape:connector-curvature="0" /><g
             id="g13661"
             transform="translate(1595.1207,2183.4807)"><path
               d="m 0,0 c 0,8.516 -0.926,16.479 -2.803,23.882 -1.878,7.403 -4.729,13.855 -8.614,19.308 -3.901,5.453 -8.907,9.759 -14.993,12.929 -6.127,3.137 -13.643,4.697 -22.509,4.697 -8.719,0 -16.163,-1.715 -22.387,-5.136 -6.201,-3.413 -11.263,-7.956 -15.115,-13.595 -3.876,-5.647 -6.778,-12.149 -8.606,-19.462 C -96.904,15.301 -97.814,7.769 -97.814,0 c 0,-8.89 1.056,-17.098 3.186,-24.598 2.12,-7.484 5.241,-13.936 9.304,-19.299 4.095,-5.372 9.158,-9.549 15.277,-12.499 6.119,-2.974 13.164,-4.445 21.128,-4.445 8.687,0 16.13,1.698 22.363,5.144 6.192,3.414 11.238,8.004 15.139,13.75 3.885,5.737 6.736,12.221 8.614,19.429 C -0.926,-15.302 0,-7.785 0,0 m -48.919,-75.857 c -9.239,0.203 -17.926,1.86 -26.004,5.005 -8.02,3.153 -15.057,7.874 -21.071,14.18 -6.046,6.298 -10.807,14.156 -14.326,23.599 -3.518,9.442 -5.29,20.46 -5.29,33.073 0,10.564 1.406,20.396 4.177,29.579 2.787,9.182 6.948,17.178 12.514,24.021 5.566,6.858 12.498,12.278 20.843,16.252 8.297,3.99 18.041,5.989 29.157,5.989 11.295,0 21.111,-1.999 29.425,-5.989 C -11.125,65.878 -4.193,60.49 1.341,53.754 6.932,46.977 11.036,38.973 13.692,29.709 16.374,20.453 17.756,10.564 17.756,0 c 0,-11.491 -1.576,-21.875 -4.697,-31.124 -3.178,-9.263 -7.655,-17.227 -13.514,-23.898 -5.81,-6.648 -12.864,-11.791 -21.112,-15.416 -8.256,-3.6 -17.357,-5.419 -27.352,-5.419"
               style="fill:#424962;fill-opacity:1;fill-rule:nonzero;stroke:none"
               id="path13663"
               inkscape:connector-curvature="0" /></g><g
             id="g13665"
             transform="translate(1748.9886,2182.928)"><path
               d="m 0,0 c 0,8.695 -1.073,16.788 -3.201,24.289 -2.121,7.5 -5.233,14.001 -9.281,19.454 -4.095,5.453 -9.223,9.759 -15.3,12.928 -6.128,3.137 -13.035,4.698 -20.836,4.698 -7.013,0 -13.547,-1.236 -19.43,-3.739 -5.932,-2.502 -11.1,-6.168 -15.545,-10.954 -4.494,-4.843 -7.947,-10.71 -10.442,-17.65 -2.487,-6.956 -3.754,-14.968 -3.754,-24.036 -0.341,-9.085 0.373,-17.545 2.226,-25.436 1.853,-7.857 4.827,-14.748 8.89,-20.672 4.087,-5.932 9.256,-10.613 15.521,-14.026 6.347,-3.446 13.823,-5.144 22.534,-5.144 7.565,0 14.383,1.609 20.421,4.852 6.013,3.258 11.108,7.605 15.261,13.05 4.176,5.477 7.362,11.864 9.588,19.178 C -1.113,-15.903 0,-8.159 0,0 M 0,72.501 H 16.667 V -57.501 c 0,-9.645 -0.983,-18.852 -2.925,-27.653 -1.934,-8.801 -5.396,-16.52 -10.402,-23.2 -5.006,-6.68 -11.847,-11.994 -20.535,-15.96 -8.735,-3.998 -19.949,-5.98 -33.626,-5.98 -10.587,0 -19.648,1.349 -27.255,4.014 -7.605,2.698 -13.781,6.07 -18.6,10.158 -4.819,4.063 -8.484,8.58 -10.962,13.457 -2.495,4.907 -3.876,9.491 -4.023,13.749 h 17.772 c 1.284,-5.372 3.332,-9.752 6.119,-13.197 2.755,-3.413 6.062,-6.119 9.858,-8.045 3.778,-1.942 7.995,-3.275 12.627,-4.022 4.648,-0.756 9.459,-1.113 14.464,-1.113 11.296,0 20.357,1.918 27.215,5.818 6.858,3.901 12.011,9.003 15.561,15.269 3.535,6.314 5.762,13.448 6.802,21.42 1.008,7.939 1.43,16.114 1.243,24.435 -5.379,-8.889 -12.758,-15.602 -22.07,-20.12 -9.346,-4.55 -19.145,-6.834 -29.319,-6.834 -10.906,0 -20.421,2.097 -28.458,6.249 -8.069,4.177 -14.757,9.743 -20.014,16.683 -5.299,6.931 -9.232,15.041 -11.8,24.297 -2.592,9.264 -3.884,18.893 -3.884,28.88 0,10.564 1.178,20.47 3.592,29.742 2.389,9.256 6.265,17.252 11.523,24.021 5.298,6.769 12.018,12.083 20.144,15.984 8.151,3.884 18.081,5.842 29.733,5.842 4.616,0 9.338,-0.666 14.148,-1.958 4.811,-1.3 9.499,-3.161 14.05,-5.558 4.534,-2.406 8.679,-5.46 12.514,-9.15 3.779,-3.73 6.875,-7.883 9.289,-12.523 H 0 Z"
               style="fill:#424962;fill-opacity:1;fill-rule:nonzero;stroke:none"
               id="path13667"
               inkscape:connector-curvature="0" /></g><path
             d="m 1804.556,2255.429 h 16.658 v -143.906 h -16.658 z m -0.87,56.095 h 18.357 v -24.712 h -18.357 z"
             style="fill:#424962;fill-opacity:1;fill-rule:nonzero;stroke:none"
             id="path13669"
             inkscape:connector-curvature="0" /><g
             id="g13671"
             transform="translate(722.228,1796.4705)"><path
               d="M 0,0 V 200 H 28.913 L 94.466,23.606 H 95.01 L 159.491,200 h 28.596 V 0 h -18.893 v 178.344 h -0.553 L 103.087,0 H 85.308 L 19.461,178.344 h -0.56 V 0 Z"
               style="fill:#424962;fill-opacity:1;fill-rule:nonzero;stroke:none"
               id="path13673"
               inkscape:connector-curvature="0" /></g><g
             id="g13675"
             transform="translate(1040.6334,1872.0273)"><path
               d="m 0,0 c -7.07,-2.95 -14.197,-4.9 -21.429,-5.835 -7.216,-0.934 -14.423,-1.666 -21.648,-2.218 -12.79,-0.926 -22.761,-3.803 -29.888,-8.606 -7.126,-4.819 -10.685,-12.141 -10.685,-21.949 0,-4.444 0.87,-8.288 2.64,-11.547 1.756,-3.226 4.072,-5.907 6.948,-8.037 2.877,-2.145 6.209,-3.705 9.988,-4.728 3.802,-1.025 7.654,-1.521 11.547,-1.521 6.655,0 13.156,0.822 19.43,2.495 6.297,1.674 11.904,4.21 16.788,7.639 4.956,3.429 8.89,7.768 11.823,13.067 C -1.544,-35.991 0,-29.709 0,-22.501 Z m -28.092,8.329 c 3.153,0.374 6.899,0.935 11.23,1.674 4.364,0.748 7.939,1.771 10.703,3.055 2.811,1.301 4.502,3.479 5.168,6.534 C -0.349,22.631 0,25.459 0,28.06 c 0,8.516 -2.763,15.488 -8.207,20.981 -5.47,5.461 -14.684,8.175 -27.645,8.175 -5.754,0 -11.036,-0.504 -15.846,-1.512 -4.828,-1.023 -9.021,-2.779 -12.636,-5.29 -3.633,-2.494 -6.575,-5.826 -8.907,-10.003 -2.316,-4.168 -3.859,-9.377 -4.543,-15.676 h -16.975 c 0.553,8.492 2.495,15.766 5.827,21.795 3.332,6.021 7.63,10.937 12.928,14.716 5.283,3.82 11.36,6.583 18.333,8.338 6.931,1.755 14.302,2.657 22.103,2.657 7.2,0 14.01,-0.805 20.348,-2.365 6.428,-1.576 11.994,-4.095 16.724,-7.517 4.737,-3.42 8.418,-8.004 11.099,-13.757 2.682,-5.721 4.023,-12.758 4.023,-21.103 v -78.328 c 0,-6.493 1.145,-10.597 3.494,-12.368 2.276,-1.764 6.989,-1.349 13.993,1.251 v -13.058 c -1.275,-0.382 -3.153,-0.918 -5.671,-1.666 -2.495,-0.732 -4.957,-1.121 -7.371,-1.121 -2.576,0 -5.095,0.276 -7.5,0.853 -2.755,0.358 -4.965,1.243 -6.648,2.624 -1.682,1.398 -3.039,3.056 -4.03,5.006 -1.024,1.934 -1.715,4.071 -2.088,6.388 -0.367,2.307 -0.585,4.761 -0.585,7.361 -7.005,-7.792 -15.075,-13.716 -24.167,-17.78 -9.061,-4.063 -18.854,-6.118 -29.433,-6.118 -6.298,0 -12.344,0.836 -18.179,2.519 -5.843,1.666 -10.962,4.234 -15.39,7.76 -4.502,3.511 -7.989,7.842 -10.581,12.937 -2.6,5.087 -3.901,11.149 -3.901,18.17 0,24.459 16.741,38.908 50.253,43.328 z"
               style="fill:#424962;fill-opacity:1;fill-rule:nonzero;stroke:none"
               id="path13677"
               inkscape:connector-curvature="0" /></g><g
             id="g13679"
             transform="translate(1111.9973,1796.4705)"><path
               d="M 0,0 H -16.667 V 143.906 H 0 v -20.015 c 6.639,7.046 13.554,12.782 20.681,17.236 7.142,4.436 15.692,6.671 25.686,6.671 8.914,0 17.155,-1.536 24.752,-4.599 7.591,-3.048 13.97,-8.378 19.162,-15.969 3.518,-5.192 5.607,-10.514 6.265,-15.975 0.634,-5.453 0.959,-11.157 0.959,-17.098 L 97.505,0 H 80.83 v 93.897 c 0,12.953 -2.86,22.688 -8.589,29.165 -5.753,6.468 -15.277,9.711 -28.62,9.711 -5.201,0 -9.93,-0.764 -14.18,-2.349 -4.259,-1.568 -8.135,-3.656 -11.523,-6.265 -3.429,-2.568 -6.331,-5.55 -8.76,-8.874 C 6.744,111.962 4.884,108.427 3.591,104.722 1.942,100.098 0.926,95.644 0.552,91.386 0.179,87.12 0,82.521 0,77.523 Z"
               style="fill:#424962;fill-opacity:1;fill-rule:nonzero;stroke:none"
               id="path13681"
               inkscape:connector-curvature="0" /></g><g
             id="g13683"
             transform="translate(1355.3584,1868.9551)"><path
               d="m 0,0 c 0,8.159 -1.098,15.887 -3.34,23.209 -2.235,7.313 -5.428,13.709 -9.605,19.186 -4.169,5.444 -9.232,9.816 -15.277,13.05 -6.005,3.234 -12.824,4.843 -20.421,4.843 -8.728,0 -16.195,-1.715 -22.501,-5.135 -6.299,-3.414 -11.474,-8.086 -15.554,-14.027 -4.063,-5.915 -7.029,-12.822 -8.865,-20.688 -1.869,-7.875 -2.633,-16.334 -2.227,-25.419 0,-9.077 1.243,-17.072 3.738,-24.021 2.487,-6.955 5.973,-12.839 10.409,-17.666 4.454,-4.794 9.638,-8.451 15.578,-10.962 5.908,-2.494 12.385,-3.738 19.422,-3.738 7.801,0 14.74,1.552 20.819,4.721 6.127,3.145 11.255,7.452 15.326,12.913 4.055,5.444 7.159,11.953 9.279,19.445 C -1.065,-16.78 0,-8.67 0,0 M 0,127.516 H 16.65 V -72.485 H 0 v 25.289 h -0.585 c -2.39,-4.835 -5.502,-9.028 -9.313,-12.652 -3.803,-3.592 -7.948,-6.616 -12.465,-9.037 -4.543,-2.405 -9.223,-4.241 -14.067,-5.558 -4.802,-1.276 -9.532,-1.942 -14.131,-1.942 -11.677,0 -21.583,1.942 -29.741,5.843 -8.151,3.892 -14.888,9.214 -20.137,15.975 -5.282,6.761 -9.126,14.758 -11.54,24.038 -2.389,9.247 -3.591,19.161 -3.591,29.725 0,9.995 1.308,19.616 3.868,28.88 2.593,9.248 6.542,17.357 11.823,24.313 5.242,6.957 11.954,12.49 20.007,16.642 8.029,4.178 17.561,6.282 28.441,6.282 10.199,0 19.975,-2.267 29.336,-6.834 C -12.75,63.961 -5.388,57.24 0,48.343 Z"
               style="fill:#424962;fill-opacity:1;fill-rule:nonzero;stroke:none"
               id="path13685"
               inkscape:connector-curvature="0" /></g><path
             d="m 1410.9,1940.376 h 16.634 V 1796.47 H 1410.9 Z m -0.845,56.095 h 18.325 v -24.712 h -18.325 z"
             style="fill:#424962;fill-opacity:1;fill-rule:nonzero;stroke:none"
             id="path13687"
             inkscape:connector-curvature="0" /><g
             id="g13689"
             transform="translate(1482.0038,1796.4705)"><path
               d="M 0,0 H -16.675 V 143.906 H 0 v -26.955 h 0.552 c 4.649,11.474 10.605,19.495 17.935,24.013 7.305,4.567 16.975,6.834 29.034,6.834 v -18.073 c -9.458,0.187 -17.243,-1.3 -23.362,-4.444 C 18.073,122.128 13.205,117.869 9.581,112.506 5.997,107.126 3.478,100.788 2.096,93.475 0.691,86.153 0,78.515 0,70.559 Z"
               style="fill:#424962;fill-opacity:1;fill-rule:nonzero;stroke:none"
               id="path13691"
               inkscape:connector-curvature="0" /></g><path
             d="m 1553.953,1940.376 h 16.658 V 1796.47 h -16.658 z m -0.829,56.095 h 18.332 v -24.712 h -18.332 z"
             style="fill:#424962;fill-opacity:1;fill-rule:nonzero;stroke:none"
             id="path13693"
             inkscape:connector-curvature="0" /><g
             id="g13707"
             transform="translate(1132.4702,3724.1733)"><path
               d="m 0,0 h -135.623 c 0,0.127 -0.118,0.353 -0.118,0.47 H -0.226 C -0.108,0.353 -0.108,0.127 0,0"
               style="fill:#53c4f0;fill-opacity:1;fill-rule:nonzero;stroke:none"
               id="path13709"
               inkscape:connector-curvature="0" /></g><g
             id="g13723"
             transform="translate(752.2527,3475.75)"><path
               d="m 0,0 v -0.352 h -135.516 c 0,0.117 -0.108,0.226 -0.235,0.352 z"
               style="fill:#53c4f0;fill-opacity:1;fill-rule:nonzero;stroke:none"
               id="path13725"
               inkscape:connector-curvature="0" /></g><g
             id="g13727"
             transform="translate(874.4911,3724.6433)"><path
               d="m 0,0 v -0.47 h -31.224 c 1.391,0.127 2.917,0.47 4.299,0.47 z"
               style="fill:#53c4f0;fill-opacity:1;fill-rule:nonzero;stroke:none"
               id="path13729"
               inkscape:connector-curvature="0" /></g><g
             id="g13731"
             transform="translate(1006.4028,3599.9661)" /><g
             id="g13735"
             transform="translate(904.9019,3475.75)"><path
               d="M 0,0 C -1.165,-0.126 -2.321,-0.352 -3.496,-0.352 H -30.411 V 0 Z"
               style="fill:#53c4f0;fill-opacity:1;fill-rule:nonzero;stroke:none"
               id="path13737"
               inkscape:connector-curvature="0" /></g><g
             id="g13747"
             transform="translate(1355.9747,3667.2004)" /><g
             id="g13755"
             transform="translate(1006.4028,3599.9661)" /><g
             id="g13759"
             transform="translate(755.1697,3475.3977)"><path
               d="M 0,0 -1.165,-8.851 C -1.753,-5.934 -2.331,-3.026 -2.917,0 Z"
               style="fill:#e9e9e9;fill-opacity:1;fill-rule:nonzero;stroke:none"
               id="path13761"
               inkscape:connector-curvature="0" /></g><g
             id="g13763"
             transform="translate(755.2779,3475.75)"><path
               d="M 0,0 -0.108,-0.352 H -3.025 V 0 Z"
               style="fill:#e9e9e9;fill-opacity:1;fill-rule:nonzero;stroke:none"
               id="path13765"
               inkscape:connector-curvature="0" /></g><g
             id="g13767"
             transform="translate(874.4911,3475.75)"><path
               d="M 0,0 V -0.352 H -119.321 L -119.213,0 Z"
               style="fill:#e9e9e9;fill-opacity:1;fill-rule:nonzero;stroke:none"
               id="path13769"
               inkscape:connector-curvature="0" /></g><g
             id="g13771"
             transform="translate(996.7296,3724.6433)"><path
               d="m 0,0 h -2.918 l 1.283,8.86 C -1.057,5.943 -0.47,3.034 0,0"
               style="fill:#2851a9;fill-opacity:1;fill-rule:nonzero;stroke:none"
               id="path13773"
               inkscape:connector-curvature="0" /></g><g
             id="g13775"
             transform="translate(996.847,3724.1733)"><path
               d="m 0,0 h -3.153 l 0.118,0.47 h 2.918 C -0.117,0.353 0,0.127 0,0"
               style="fill:#2851a9;fill-opacity:1;fill-rule:nonzero;stroke:none"
               id="path13777"
               inkscape:connector-curvature="0" /></g><g
             id="g13779"
             transform="translate(993.8116,3724.6433)"><path
               d="M 0,0 -0.117,-0.47 H -119.32 V 0 Z"
               style="fill:#2851a9;fill-opacity:1;fill-rule:nonzero;stroke:none"
               id="path13781"
               inkscape:connector-curvature="0" /></g></g></g></g></g></svg>